<mxfile host="app.diagrams.net" modified="2020-10-09T23:00:06.597Z" agent="5.0 (Macintosh; Intel Mac OS X 10_15_7) AppleWebKit/537.36 (KHTML, like Gecko) Chrome/86.0.4240.75 Safari/537.36" etag="W8vLxZSFwLfmNoEBPFG_" version="13.5.8" type="github">
  <diagram name="Page-1" id="e7e014a7-5840-1c2e-5031-d8a46d1fe8dd">
    <mxGraphModel dx="1428" dy="719" grid="1" gridSize="10" guides="1" tooltips="1" connect="1" arrows="1" fold="1" page="1" pageScale="1" pageWidth="1169" pageHeight="826" background="#ffffff" math="0" shadow="0">
      <root>
        <mxCell id="0" />
        <mxCell id="1" parent="0" />
        <mxCell id="DFxoOUwJSN-Vv42BanRs-62" value="Dev Portal" style="shape=umlFrame;whiteSpace=wrap;html=1;shadow=1;" vertex="1" parent="1">
          <mxGeometry x="530" y="115" width="230" height="440" as="geometry" />
        </mxCell>
        <mxCell id="DFxoOUwJSN-Vv42BanRs-64" value="Software Product Mgt" style="shape=umlFrame;whiteSpace=wrap;html=1;shadow=1;" vertex="1" parent="1">
          <mxGeometry x="800" y="120" width="250" height="440" as="geometry" />
        </mxCell>
        <mxCell id="DFxoOUwJSN-Vv42BanRs-56" value="User Mgt" style="shape=umlFrame;whiteSpace=wrap;html=1;shadow=0;" vertex="1" parent="1">
          <mxGeometry x="240" y="115" width="240" height="440" as="geometry" />
        </mxCell>
        <mxCell id="DFxoOUwJSN-Vv42BanRs-41" value="staff / internal support team" style="shape=umlActor;verticalLabelPosition=bottom;verticalAlign=top;html=1;fillColor=#0000C2;" vertex="1" parent="1">
          <mxGeometry x="100" y="130" width="30" height="60" as="geometry" />
        </mxCell>
        <mxCell id="DFxoOUwJSN-Vv42BanRs-42" value="admin / Fintech contact person" style="shape=umlActor;verticalLabelPosition=bottom;verticalAlign=top;html=1;fillColor=#0000C2;" vertex="1" parent="1">
          <mxGeometry x="100" y="290" width="30" height="60" as="geometry" />
        </mxCell>
        <mxCell id="DFxoOUwJSN-Vv42BanRs-43" value="developer / anyone can sign up" style="shape=umlActor;verticalLabelPosition=bottom;verticalAlign=top;html=1;fillColor=#0000C2;" vertex="1" parent="1">
          <mxGeometry x="100" y="470" width="30" height="60" as="geometry" />
        </mxCell>
        <mxCell id="DFxoOUwJSN-Vv42BanRs-47" value="Sign In / Sign Out" style="ellipse;whiteSpace=wrap;html=1;fillColor=#FFFF00;" vertex="1" parent="1">
          <mxGeometry x="290" y="300" width="140" height="70" as="geometry" />
        </mxCell>
        <mxCell id="DFxoOUwJSN-Vv42BanRs-48" value="Sign Up / User Onboarding" style="ellipse;whiteSpace=wrap;html=1;fillColor=#36FF3C;" vertex="1" parent="1">
          <mxGeometry x="280" y="160" width="140" height="70" as="geometry" />
        </mxCell>
        <mxCell id="DFxoOUwJSN-Vv42BanRs-50" value="Create Software Product" style="ellipse;whiteSpace=wrap;html=1;fillColor=#FFD387;" vertex="1" parent="1">
          <mxGeometry x="850" y="220" width="140" height="70" as="geometry" />
        </mxCell>
        <mxCell id="DFxoOUwJSN-Vv42BanRs-51" value="Get Software Product&lt;br&gt;&amp;nbsp;/ Edit / Delete" style="ellipse;whiteSpace=wrap;html=1;fillColor=#36FF3C;" vertex="1" parent="1">
          <mxGeometry x="850" y="378" width="140" height="70" as="geometry" />
        </mxCell>
        <mxCell id="DFxoOUwJSN-Vv42BanRs-52" value="Read Swagger Definition" style="ellipse;whiteSpace=wrap;html=1;fillColor=#FFFF00;" vertex="1" parent="1">
          <mxGeometry x="580" y="220" width="140" height="70" as="geometry" />
        </mxCell>
        <mxCell id="DFxoOUwJSN-Vv42BanRs-53" value="Upload Swagger Doc" style="ellipse;whiteSpace=wrap;html=1;fillColor=#36FF3C;" vertex="1" parent="1">
          <mxGeometry x="580" y="413" width="140" height="70" as="geometry" />
        </mxCell>
        <mxCell id="DFxoOUwJSN-Vv42BanRs-55" value="Get All Users Registered" style="ellipse;whiteSpace=wrap;html=1;fillColor=#36FF3C;" vertex="1" parent="1">
          <mxGeometry x="290" y="440" width="140" height="70" as="geometry" />
        </mxCell>
        <mxCell id="DFxoOUwJSN-Vv42BanRs-59" value="staff / internal support team" style="shape=umlActor;verticalLabelPosition=bottom;verticalAlign=top;html=1;fillColor=#0000C2;" vertex="1" parent="1">
          <mxGeometry x="1160" y="120" width="30" height="60" as="geometry" />
        </mxCell>
        <mxCell id="DFxoOUwJSN-Vv42BanRs-60" value="admin / Fintech contact person" style="shape=umlActor;verticalLabelPosition=bottom;verticalAlign=top;html=1;fillColor=#0000C2;" vertex="1" parent="1">
          <mxGeometry x="1160" y="280" width="30" height="60" as="geometry" />
        </mxCell>
        <mxCell id="DFxoOUwJSN-Vv42BanRs-61" value="developer / anyone can sign up" style="shape=umlActor;verticalLabelPosition=bottom;verticalAlign=top;html=1;fillColor=#0000C2;" vertex="1" parent="1">
          <mxGeometry x="1160" y="460" width="30" height="60" as="geometry" />
        </mxCell>
        <mxCell id="DFxoOUwJSN-Vv42BanRs-65" value="No Authorisation" style="text;html=1;strokeColor=none;fillColor=#FFFF00;align=center;verticalAlign=middle;whiteSpace=wrap;rounded=0;shadow=1;" vertex="1" parent="1">
          <mxGeometry x="70" y="40" width="150" height="20" as="geometry" />
        </mxCell>
        <mxCell id="DFxoOUwJSN-Vv42BanRs-66" value="Admin or Staff" style="text;html=1;strokeColor=none;fillColor=#FFD387;align=center;verticalAlign=middle;whiteSpace=wrap;rounded=0;shadow=1;" vertex="1" parent="1">
          <mxGeometry x="70" y="60" width="150" height="20" as="geometry" />
        </mxCell>
        <mxCell id="DFxoOUwJSN-Vv42BanRs-67" value="Staff Only" style="text;html=1;strokeColor=none;fillColor=#36FF3C;align=center;verticalAlign=middle;whiteSpace=wrap;rounded=0;shadow=1;" vertex="1" parent="1">
          <mxGeometry x="70" y="80" width="150" height="20" as="geometry" />
        </mxCell>
        <mxCell id="DFxoOUwJSN-Vv42BanRs-70" value="Legend" style="text;html=1;strokeColor=none;fillColor=none;align=center;verticalAlign=middle;whiteSpace=wrap;rounded=0;shadow=1;" vertex="1" parent="1">
          <mxGeometry x="110" y="10" width="40" height="20" as="geometry" />
        </mxCell>
      </root>
    </mxGraphModel>
  </diagram>
</mxfile>
